<?xml version="1.0" encoding="iso-8859-1"?>
<!-- Generator: Adobe Illustrator 19.0.0, SVG Export Plug-In . SVG Version: 6.00 Build 0)  -->
<svg version="1.1" id="Capa_1" xmlns="http://www.w3.org/2000/svg" xmlns:xlink="http://www.w3.org/1999/xlink" x="0px" y="0px"
	 viewBox="0 0 403.04 403.04" style="enable-background:new 0 0 403.04 403.04;" xml:space="preserve">
<g>
	<g>
		<path d="M370.604,50.16L370.604,50.16c-2.948-1.487-6.507-1.011-8.96,1.2c-21.68,19.44-41.6,28.88-60.96,28.88
			s-38.16-8.96-61.52-29.2c-50.72-43.28-100.56-43.2-158.8-1.84c-4.08,2.88-4.08,2.88-3.36,86.16c0,32.72,0.56,73.28,0,78.96
			c-1.106,4.278,1.465,8.642,5.742,9.748c2.572,0.665,5.306,0.01,7.298-1.748c20.301-15.662,45.085-24.409,70.72-24.96
			c16.693,0.091,33.132,4.092,48,11.68c16.247,8.709,34.294,13.529,52.72,14.08c96.64,0,112.56-158.16,113.2-164.88
			C375.125,54.962,373.504,51.751,370.604,50.16z"/>
	</g>
</g>
<g>
	<g>
		<path d="M52.364,0h-7.52c-9.146,0-16.56,7.414-16.56,16.56v369.92c0,9.146,7.414,16.56,16.56,16.56h7.52
			c9.146,0,16.56-7.414,16.56-16.56V16.56C68.924,7.414,61.51,0,52.364,0z"/>
	</g>
</g>
<g>
</g>
<g>
</g>
<g>
</g>
<g>
</g>
<g>
</g>
<g>
</g>
<g>
</g>
<g>
</g>
<g>
</g>
<g>
</g>
<g>
</g>
<g>
</g>
<g>
</g>
<g>
</g>
<g>
</g>
</svg>
