<?xml version='1.0' encoding='iso-8859-1'?>
<!DOCTYPE svg PUBLIC '-//W3C//DTD SVG 1.1//EN' 'http://www.w3.org/Graphics/SVG/1.1/DTD/svg11.dtd'>
<svg version="1.1" xmlns="http://www.w3.org/2000/svg" viewBox="0 0 512.003 512.003" xmlns:xlink="http://www.w3.org/1999/xlink" enable-background="new 0 0 512.003 512.003">
  <path d="m510.838,471.439l-80-288c-3.852-13.852-16.461-23.438-30.836-23.438h-112v-6.781c28-12.379 48-40.498 48-73.219 0-44.109-35.891-80-80-80s-80,35.891-80,80c0,32.721 20,60.84 48,73.219v6.781h-112c-14.375,0-26.984,9.586-30.836,23.438l-80,288c-2.672,9.633-0.695,19.969 5.359,27.93 6.055,7.961 15.477,12.633 25.477,12.633h448c10,0 19.422-4.672 25.477-12.633 6.054-7.961 8.03-18.297 5.359-27.93zm-254.836-407.437c8.82-1.42109e-14 16,7.18 16,16s-7.18,16-16,16c-8.82,0-16-7.18-16-16s7.179-16 16-16z"/>
</svg>
